<svg width="88" height="101" viewBox="0 0 88 101" fill="none" xmlns="http://www.w3.org/2000/svg">
<path d="M42.4948 25.6966C43.5397 23.9172 42.9267 21.626 41.1625 20.5885C39.3821 19.5432 37.0904 20.1551 36.0532 21.9183C35.0083 23.6976 35.6052 25.9811 37.3932 27.0103C39.1736 28.0555 41.4576 27.4598 42.5025 25.6804" fill="#55CFC4"/>
<path d="M13.935 76.3446C15.7075 73.3277 14.687 69.4371 11.6608 67.6801C8.64224 65.907 4.75069 66.9255 2.97056 69.9585C1.21426 72.983 2.21855 76.866 5.2448 78.6229C8.27104 80.3799 12.1549 79.3775 13.9189 76.3369" fill="#55CFC4"/>
<path d="M32.3987 68.3045C38.526 58.135 50.5372 44.1337 71.7182 39.6238C95.4485 34.585 87.3711 8.64778 58.6405 27.0651C41.0723 38.3425 33.1543 55.4796 29.671 67.0856C29.1605 68.7827 31.4844 69.8095 32.3987 68.3045Z" fill="#55CFC4"/>
<path d="M19.059 57.8779C18.5476 59.5351 16.151 59.2853 16.021 57.5606C15.5423 51.1166 16.1689 42.3083 21.3385 34.6921C27.2311 26.0144 34.2137 34.1084 27.5734 42.1928C22.9097 47.8721 20.4041 53.4699 19.059 57.8779Z" fill="#55CFC4"/>
</svg>
