<svg width="48" height="48" viewBox="0 0 48 48" fill="none" xmlns="http://www.w3.org/2000/svg">
<path d="M26.5364 0.141994C39.7336 1.5231 49.2479 13.3904 47.8668 26.5364C46.4857 39.7336 34.6696 49.2479 21.4724 47.8668C8.27516 46.4857 -1.29026 34.6184 0.141998 21.4724C1.5231 8.27515 13.3904 -1.29026 26.5364 0.141994Z" fill="#95B2D7"/>
<path d="M30.5 11.5H26.75C25.0924 11.5 23.5027 12.1585 22.3306 13.3306C21.1585 14.5027 20.5 16.0924 20.5 17.75V21.5H16.75V26.5H20.5V36.5H25.5V26.5H29.25L30.5 21.5H25.5V17.75C25.5 17.4185 25.6317 17.1005 25.8661 16.8661C26.1005 16.6317 26.4185 16.5 26.75 16.5H30.5V11.5Z" stroke="white" stroke-width="2" stroke-linecap="round" stroke-linejoin="round"/>
</svg>
