<svg width="48" height="48" viewBox="0 0 48 48" fill="none" xmlns="http://www.w3.org/2000/svg">
<path d="M26.5364 0.141996C39.7336 1.5231 49.2479 13.3904 47.8668 26.5364C46.4857 39.7336 34.6696 49.2479 21.4724 47.8668C8.27516 46.4857 -1.29026 34.6184 0.141998 21.4724C1.5231 8.27515 13.3904 -1.29026 26.5364 0.141996Z" fill="#FF671D"/>
<path d="M35.9882 16.213C34.4357 16.213 33.0001 15.6973 31.8516 14.8306C30.533 13.8363 29.5812 12.3741 29.2462 10.6939C29.1612 10.2792 29.1186 9.84854 29.1133 9.40723H24.6736V21.5353L24.6683 28.1763C24.6683 29.9522 23.5092 31.4569 21.9088 31.9886C21.4409 32.1428 20.9411 32.2172 20.42 32.1853C19.7501 32.1481 19.128 31.9461 18.5803 31.6217C17.4212 30.9305 16.6396 29.6757 16.6183 28.2348C16.5864 25.991 18.3995 24.1566 20.6433 24.1566C21.0846 24.1566 21.51 24.2311 21.9088 24.3587V21.0462V19.8605C21.4887 19.7967 21.0634 19.7648 20.6274 19.7648C18.1709 19.7648 15.874 20.7856 14.231 22.6253C12.9921 24.0131 12.2477 25.789 12.1308 27.6499C11.9819 30.0904 12.8752 32.414 14.6085 34.126C14.8637 34.3759 15.1296 34.6099 15.4114 34.8279C16.8948 35.971 18.7132 36.5931 20.6274 36.5931C21.058 36.5931 21.4887 36.5612 21.9088 36.4974C23.6953 36.2316 25.3436 35.4128 26.6462 34.126C28.2466 32.5469 29.1293 30.4467 29.1399 28.2135L29.1186 18.292C29.879 18.8821 30.7137 19.366 31.6123 19.7435C33.0054 20.3337 34.4835 20.6261 35.9989 20.6261V17.404V16.2077C36.0042 16.213 35.9882 16.213 35.9882 16.213Z" stroke="white" stroke-width="2" stroke-linejoin="round"/>
</svg>
