<svg width="48" height="48" viewBox="0 0 48 48" fill="none" xmlns="http://www.w3.org/2000/svg">
<path d="M26.5364 0.141994C39.7336 1.5231 49.2479 13.3904 47.8668 26.5364C46.4857 39.7336 34.6696 49.2479 21.4724 47.8668C8.27516 46.4857 -1.29026 34.6184 0.141998 21.4724C1.5231 8.27515 13.3904 -1.29026 26.5364 0.141994Z" fill="#E31D93"/>
<path d="M29.8333 12.3333H18.1667C14.945 12.3333 12.3333 14.9449 12.3333 18.1666V29.8333C12.3333 33.0549 14.945 35.6666 18.1667 35.6666H29.8333C33.055 35.6666 35.6667 33.0549 35.6667 29.8333V18.1666C35.6667 14.9449 33.055 12.3333 29.8333 12.3333Z" stroke="white" stroke-width="2" stroke-linecap="round" stroke-linejoin="round"/>
<path d="M28.6667 23.2651C28.8107 24.2361 28.6448 25.2277 28.1927 26.099C27.7407 26.9702 27.0254 27.6768 26.1486 28.1181C25.2718 28.5594 24.2782 28.713 23.3091 28.557C22.34 28.4011 21.4447 27.9435 20.7507 27.2495C20.0566 26.5554 19.599 25.6601 19.4431 24.691C19.2872 23.7219 19.4408 22.7283 19.8821 21.8515C20.3234 20.9748 21.0299 20.2595 21.9012 19.8074C22.7724 19.3553 23.7641 19.1895 24.735 19.3334C25.7254 19.4803 26.6423 19.9418 27.3503 20.6498C28.0583 21.3578 28.5198 22.2747 28.6667 23.2651Z" stroke="white" stroke-width="2" stroke-linecap="round" stroke-linejoin="round"/>
<path d="M30.4167 17.5833H30.4292" stroke="white" stroke-width="2" stroke-linecap="round" stroke-linejoin="round"/>
</svg>
