<svg width="48" height="48" viewBox="0 0 48 48" fill="none" xmlns="http://www.w3.org/2000/svg">
<path d="M26.5364 0.141994C39.7336 1.5231 49.2479 13.3904 47.8668 26.5364C46.4857 39.7336 34.6696 49.2479 21.4724 47.8668C8.27516 46.4857 -1.29026 34.6184 0.141998 21.4724C1.5231 8.27515 13.3904 -1.29026 26.5364 0.141994Z" fill="#E1BD18"/>
<path d="M37.1749 17.025C37.0264 16.4318 36.724 15.8882 36.2982 15.4493C35.8724 15.0103 35.3383 14.6915 34.7499 14.525C32.5999 14 23.9999 14 23.9999 14C23.9999 14 15.3999 14 13.2499 14.575C12.6614 14.7415 12.1274 15.0603 11.7016 15.4993C11.2758 15.9382 10.9734 16.4818 10.8249 17.075C10.4314 19.2569 10.2389 21.4704 10.2499 23.6875C10.2359 25.9213 10.4284 28.1516 10.8249 30.35C10.9886 30.9248 11.2978 31.4477 11.7226 31.8681C12.1474 32.2885 12.6734 32.5923 13.2499 32.75C15.3999 33.325 23.9999 33.325 23.9999 33.325C23.9999 33.325 32.5999 33.325 34.7499 32.75C35.3383 32.5835 35.8724 32.2647 36.2982 31.8257C36.724 31.3868 37.0264 30.8432 37.1749 30.25C37.5653 28.0845 37.7578 25.8879 37.7499 23.6875C37.7639 21.4537 37.5714 19.2234 37.1749 17.025V17.025Z" stroke="white" stroke-width="2" stroke-linecap="round" stroke-linejoin="round"/>
<path d="M21.1875 27.7751L28.375 23.6876L21.1875 19.6001V27.7751Z" stroke="white" stroke-width="2" stroke-linecap="round" stroke-linejoin="round"/>
</svg>
